<svg xmlns="http://www.w3.org/2000/svg" width="1000" height="600" viewBox="0 0 1000 600">
<rect width="100%" height="100%" fill="white"/>
<text x="500.0" y="28" text-anchor="middle" font-size="22" font-family="Arial">HalfCheetah Return vs Timesteps</text>
<line x1="90" y1="530" x2="970" y2="530" stroke="#333" stroke-width="2"/>
<line x1="90" y1="50" x2="90" y2="530" stroke="#333" stroke-width="2"/>
<text x="500.0" y="580" text-anchor="middle" font-size="16" font-family="Arial">Timesteps</text>
<text x="25" y="300.0" text-anchor="middle" font-size="16" font-family="Arial" transform="rotate(-90 25 300.0)">Return</text>
<line x1="90.0" y1="50" x2="90.0" y2="530" stroke="#ddd" stroke-width="1"/>
<line x1="90" y1="530.0" x2="970" y2="530.0" stroke="#ddd" stroke-width="1"/>
<text x="90.0" y="552" text-anchor="middle" font-size="12" font-family="Arial">0</text>
<text x="80" y="534.0" text-anchor="end" font-size="12" font-family="Arial">-6657.7</text>
<line x1="266.0" y1="50" x2="266.0" y2="530" stroke="#ddd" stroke-width="1"/>
<line x1="90" y1="434.0" x2="970" y2="434.0" stroke="#ddd" stroke-width="1"/>
<text x="266.0" y="552" text-anchor="middle" font-size="12" font-family="Arial">4000</text>
<text x="80" y="438.0" text-anchor="end" font-size="12" font-family="Arial">-4747.3</text>
<line x1="442.0" y1="50" x2="442.0" y2="530" stroke="#ddd" stroke-width="1"/>
<line x1="90" y1="338.0" x2="970" y2="338.0" stroke="#ddd" stroke-width="1"/>
<text x="442.0" y="552" text-anchor="middle" font-size="12" font-family="Arial">8000</text>
<text x="80" y="342.0" text-anchor="end" font-size="12" font-family="Arial">-2837.0</text>
<line x1="618.0" y1="50" x2="618.0" y2="530" stroke="#ddd" stroke-width="1"/>
<line x1="90" y1="242.0" x2="970" y2="242.0" stroke="#ddd" stroke-width="1"/>
<text x="618.0" y="552" text-anchor="middle" font-size="12" font-family="Arial">12000</text>
<text x="80" y="246.0" text-anchor="end" font-size="12" font-family="Arial">-926.6</text>
<line x1="794.0" y1="50" x2="794.0" y2="530" stroke="#ddd" stroke-width="1"/>
<line x1="90" y1="146.00000000000006" x2="970" y2="146.00000000000006" stroke="#ddd" stroke-width="1"/>
<text x="794.0" y="552" text-anchor="middle" font-size="12" font-family="Arial">16000</text>
<text x="80" y="150.00000000000006" text-anchor="end" font-size="12" font-family="Arial">983.7</text>
<line x1="970.0" y1="50" x2="970.0" y2="530" stroke="#ddd" stroke-width="1"/>
<line x1="90" y1="50.0" x2="970" y2="50.0" stroke="#ddd" stroke-width="1"/>
<text x="970.0" y="552" text-anchor="middle" font-size="12" font-family="Arial">20000</text>
<text x="80" y="54.0" text-anchor="end" font-size="12" font-family="Arial">2894.1</text>
<line x1="750" y1="60" x2="774" y2="60" stroke="#0b6e4f" stroke-width="3"/>
<text x="784" y="64" font-size="13" font-family="Arial">Average return</text>
<line x1="750" y1="82" x2="774" y2="82" stroke="#c84c09" stroke-width="3"/>
<text x="784" y="86" font-size="13" font-family="Arial">Mean sampled return</text>
<circle cx="762" cy="104" r="4" fill="#3b5bdb"/>
<text x="784" y="108" font-size="13" font-family="Arial">Improvement/Reevaluation events</text>
<path d="M 90.00 236.19 L 101.00 143.11 L 112.00 102.58 L 123.00 84.47 L 134.00 84.23 L 145.00 84.23 L 156.00 81.78 L 167.00 80.61 L 178.00 77.86 L 189.00 74.30 L 200.00 74.48 L 211.00 74.90 L 222.00 70.99 L 233.00 51.47 L 244.00 50.85 L 255.00 51.90 L 266.00 52.45 L 277.00 50.95 L 288.00 51.43 L 299.00 52.21 L 310.00 51.54 L 321.00 51.00 L 332.00 51.58 L 343.00 50.52 L 354.00 50.74 L 365.00 50.55 L 376.00 50.28 L 387.00 50.70 L 398.00 50.74 L 409.00 50.15 L 420.00 50.24 L 431.00 50.52 L 442.00 50.17 L 453.00 50.27 L 464.00 50.55 L 475.00 51.10 L 486.00 50.60 L 497.00 51.12 L 508.00 50.26 L 519.00 50.71 L 530.00 50.50 L 541.00 50.70 L 552.00 50.41 L 563.00 50.31 L 574.00 50.56 L 585.00 50.76 L 596.00 50.70 L 607.00 50.36 L 618.00 50.22 L 629.00 50.85 L 640.00 51.08 L 651.00 50.14 L 662.00 50.33 L 673.00 50.80 L 684.00 50.99 L 695.00 50.24 L 706.00 50.50 L 717.00 50.00 L 728.00 50.82 L 739.00 50.66 L 750.00 50.82 L 761.00 50.79 L 772.00 50.60 L 783.00 50.58 L 794.00 50.35 L 805.00 50.32 L 816.00 50.30 L 827.00 50.57 L 838.00 50.50 L 849.00 50.38 L 860.00 50.18 L 871.00 50.74 L 882.00 50.60 L 893.00 50.81 L 904.00 50.86 L 915.00 50.85 L 926.00 50.47 L 937.00 50.45 L 948.00 50.63 L 959.00 50.32 L 970.00 50.28 L 970.00 51.50" fill="none" stroke="#0b6e4f" stroke-width="2.5"/>
<path d="M 90.00 253.48 L 101.00 201.49 L 112.00 187.51 L 123.00 184.87 L 134.00 180.97 L 145.00 178.54 L 156.00 178.58 L 167.00 179.20 L 178.00 178.91 L 189.00 178.86 L 200.00 178.59 L 211.00 178.00 L 222.00 177.65 L 233.00 176.92 L 244.00 176.35 L 255.00 175.96 L 266.00 175.67 L 277.00 175.30 L 288.00 175.20 L 299.00 175.17 L 310.00 174.99 L 321.00 174.66 L 332.00 174.30 L 343.00 173.98 L 354.00 173.75 L 365.00 173.39 L 376.00 173.12 L 387.00 172.81 L 398.00 172.60 L 409.00 172.45 L 420.00 172.29 L 431.00 172.12 L 442.00 172.08 L 453.00 172.10 L 464.00 171.91 L 475.00 171.72 L 486.00 171.62 L 497.00 171.54 L 508.00 171.47 L 519.00 171.40 L 530.00 171.27 L 541.00 171.19 L 552.00 171.11 L 563.00 171.16 L 574.00 171.08 L 585.00 171.07 L 596.00 170.95 L 607.00 170.86 L 618.00 170.78 L 629.00 170.68 L 640.00 170.59 L 651.00 170.56 L 662.00 170.44 L 673.00 170.41 L 684.00 170.36 L 695.00 170.28 L 706.00 170.16 L 717.00 170.10 L 728.00 170.05 L 739.00 169.96 L 750.00 169.93 L 761.00 169.95 L 772.00 169.95 L 783.00 169.88 L 794.00 169.92 L 805.00 169.96 L 816.00 169.92 L 827.00 169.92 L 838.00 169.88 L 849.00 169.87 L 860.00 169.87 L 871.00 169.88 L 882.00 169.84 L 893.00 169.84 L 904.00 169.77 L 915.00 169.74 L 926.00 169.74 L 937.00 169.75 L 948.00 169.71 L 959.00 169.68 L 970.00 169.63 L 970.00 169.63" fill="none" stroke="#c84c09" stroke-width="2.5"/>
<circle cx="90.04" cy="231.95" r="2.5" fill="#3b5bdb" fill-opacity="0.75"/>
<circle cx="90.13" cy="198.49" r="2.5" fill="#3b5bdb" fill-opacity="0.75"/>
<circle cx="90.18" cy="197.38" r="2.5" fill="#3b5bdb" fill-opacity="0.75"/>
<circle cx="90.22" cy="197.21" r="2.5" fill="#3b5bdb" fill-opacity="0.75"/>
<circle cx="90.35" cy="196.85" r="2.5" fill="#3b5bdb" fill-opacity="0.75"/>
<circle cx="90.48" cy="196.05" r="2.5" fill="#3b5bdb" fill-opacity="0.75"/>
<circle cx="92.11" cy="195.97" r="2.5" fill="#3b5bdb" fill-opacity="0.75"/>
<circle cx="93.92" cy="195.80" r="2.5" fill="#3b5bdb" fill-opacity="0.75"/>
<circle cx="94.09" cy="175.71" r="2.5" fill="#3b5bdb" fill-opacity="0.75"/>
<circle cx="95.28" cy="163.87" r="2.5" fill="#3b5bdb" fill-opacity="0.75"/>
<circle cx="95.85" cy="162.45" r="2.5" fill="#3b5bdb" fill-opacity="0.75"/>
<circle cx="96.64" cy="160.87" r="2.5" fill="#3b5bdb" fill-opacity="0.75"/>
<circle cx="98.89" cy="188.76" r="2.5" fill="#3b5bdb" fill-opacity="0.75"/>
<circle cx="99.72" cy="153.59" r="2.5" fill="#3b5bdb" fill-opacity="0.75"/>
<circle cx="99.77" cy="148.63" r="2.5" fill="#3b5bdb" fill-opacity="0.75"/>
<circle cx="100.38" cy="143.43" r="2.5" fill="#3b5bdb" fill-opacity="0.75"/>
<circle cx="102.01" cy="131.59" r="2.5" fill="#3b5bdb" fill-opacity="0.75"/>
<circle cx="102.06" cy="122.31" r="2.5" fill="#3b5bdb" fill-opacity="0.75"/>
<circle cx="104.30" cy="208.15" r="2.5" fill="#3b5bdb" fill-opacity="0.75"/>
<circle cx="106.54" cy="139.55" r="2.5" fill="#3b5bdb" fill-opacity="0.75"/>
<circle cx="108.79" cy="159.06" r="2.5" fill="#3b5bdb" fill-opacity="0.75"/>
<circle cx="109.23" cy="103.17" r="2.5" fill="#3b5bdb" fill-opacity="0.75"/>
<circle cx="111.47" cy="195.95" r="2.5" fill="#3b5bdb" fill-opacity="0.75"/>
<circle cx="113.72" cy="199.48" r="2.5" fill="#3b5bdb" fill-opacity="0.75"/>
<circle cx="115.96" cy="131.08" r="2.5" fill="#3b5bdb" fill-opacity="0.75"/>
<circle cx="118.20" cy="157.25" r="2.5" fill="#3b5bdb" fill-opacity="0.75"/>
<circle cx="120.45" cy="230.04" r="2.5" fill="#3b5bdb" fill-opacity="0.75"/>
<circle cx="122.08" cy="85.29" r="2.5" fill="#3b5bdb" fill-opacity="0.75"/>
<circle cx="124.32" cy="168.96" r="2.5" fill="#3b5bdb" fill-opacity="0.75"/>
<circle cx="126.56" cy="109.82" r="2.5" fill="#3b5bdb" fill-opacity="0.75"/>
<circle cx="128.81" cy="158.79" r="2.5" fill="#3b5bdb" fill-opacity="0.75"/>
<circle cx="131.05" cy="111.98" r="2.5" fill="#3b5bdb" fill-opacity="0.75"/>
<circle cx="133.30" cy="160.11" r="2.5" fill="#3b5bdb" fill-opacity="0.75"/>
<circle cx="135.54" cy="119.89" r="2.5" fill="#3b5bdb" fill-opacity="0.75"/>
<circle cx="137.78" cy="121.77" r="2.5" fill="#3b5bdb" fill-opacity="0.75"/>
<circle cx="140.03" cy="159.23" r="2.5" fill="#3b5bdb" fill-opacity="0.75"/>
<circle cx="142.27" cy="165.21" r="2.5" fill="#3b5bdb" fill-opacity="0.75"/>
<circle cx="144.52" cy="210.90" r="2.5" fill="#3b5bdb" fill-opacity="0.75"/>
<circle cx="145.22" cy="82.13" r="2.5" fill="#3b5bdb" fill-opacity="0.75"/>
<circle cx="147.46" cy="154.04" r="2.5" fill="#3b5bdb" fill-opacity="0.75"/>
<circle cx="149.71" cy="125.04" r="2.5" fill="#3b5bdb" fill-opacity="0.75"/>
<circle cx="151.95" cy="139.44" r="2.5" fill="#3b5bdb" fill-opacity="0.75"/>
<circle cx="154.20" cy="198.20" r="2.5" fill="#3b5bdb" fill-opacity="0.75"/>
<circle cx="156.44" cy="179.15" r="2.5" fill="#3b5bdb" fill-opacity="0.75"/>
<circle cx="158.68" cy="182.01" r="2.5" fill="#3b5bdb" fill-opacity="0.75"/>
<circle cx="160.93" cy="143.01" r="2.5" fill="#3b5bdb" fill-opacity="0.75"/>
<circle cx="163.17" cy="211.54" r="2.5" fill="#3b5bdb" fill-opacity="0.75"/>
<circle cx="165.42" cy="165.39" r="2.5" fill="#3b5bdb" fill-opacity="0.75"/>
<circle cx="167.66" cy="197.03" r="2.5" fill="#3b5bdb" fill-opacity="0.75"/>
<circle cx="168.63" cy="78.39" r="2.5" fill="#3b5bdb" fill-opacity="0.75"/>
<circle cx="170.87" cy="196.29" r="2.5" fill="#3b5bdb" fill-opacity="0.75"/>
<circle cx="173.12" cy="133.51" r="2.5" fill="#3b5bdb" fill-opacity="0.75"/>
<circle cx="175.36" cy="92.60" r="2.5" fill="#3b5bdb" fill-opacity="0.75"/>
<circle cx="177.60" cy="179.38" r="2.5" fill="#3b5bdb" fill-opacity="0.75"/>
<circle cx="179.85" cy="99.82" r="2.5" fill="#3b5bdb" fill-opacity="0.75"/>
<circle cx="182.09" cy="186.79" r="2.5" fill="#3b5bdb" fill-opacity="0.75"/>
<circle cx="184.34" cy="227.51" r="2.5" fill="#3b5bdb" fill-opacity="0.75"/>
<circle cx="186.58" cy="227.89" r="2.5" fill="#3b5bdb" fill-opacity="0.75"/>
<circle cx="188.12" cy="75.83" r="2.5" fill="#3b5bdb" fill-opacity="0.75"/>
<circle cx="190.36" cy="148.33" r="2.5" fill="#3b5bdb" fill-opacity="0.75"/>
<circle cx="192.61" cy="161.62" r="2.5" fill="#3b5bdb" fill-opacity="0.75"/>
<circle cx="194.85" cy="197.08" r="2.5" fill="#3b5bdb" fill-opacity="0.75"/>
<circle cx="197.10" cy="207.63" r="2.5" fill="#3b5bdb" fill-opacity="0.75"/>
<circle cx="199.34" cy="184.40" r="2.5" fill="#3b5bdb" fill-opacity="0.75"/>
<circle cx="201.58" cy="201.79" r="2.5" fill="#3b5bdb" fill-opacity="0.75"/>
<circle cx="203.83" cy="197.59" r="2.5" fill="#3b5bdb" fill-opacity="0.75"/>
<circle cx="206.07" cy="162.77" r="2.5" fill="#3b5bdb" fill-opacity="0.75"/>
<circle cx="208.32" cy="194.69" r="2.5" fill="#3b5bdb" fill-opacity="0.75"/>
<circle cx="210.56" cy="177.56" r="2.5" fill="#3b5bdb" fill-opacity="0.75"/>
<circle cx="212.23" cy="74.88" r="2.5" fill="#3b5bdb" fill-opacity="0.75"/>
<circle cx="212.58" cy="74.45" r="2.5" fill="#3b5bdb" fill-opacity="0.75"/>
<circle cx="214.83" cy="234.15" r="2.5" fill="#3b5bdb" fill-opacity="0.75"/>
<circle cx="217.07" cy="236.14" r="2.5" fill="#3b5bdb" fill-opacity="0.75"/>
<circle cx="219.32" cy="210.61" r="2.5" fill="#3b5bdb" fill-opacity="0.75"/>
<circle cx="221.56" cy="145.36" r="2.5" fill="#3b5bdb" fill-opacity="0.75"/>
<circle cx="223.80" cy="180.42" r="2.5" fill="#3b5bdb" fill-opacity="0.75"/>
<circle cx="225.21" cy="65.51" r="2.5" fill="#3b5bdb" fill-opacity="0.75"/>
<circle cx="227.46" cy="190.78" r="2.5" fill="#3b5bdb" fill-opacity="0.75"/>
<circle cx="229.66" cy="51.06" r="2.5" fill="#3b5bdb" fill-opacity="0.75"/>
<circle cx="231.90" cy="205.59" r="2.5" fill="#3b5bdb" fill-opacity="0.75"/>
<circle cx="234.14" cy="105.77" r="2.5" fill="#3b5bdb" fill-opacity="0.75"/>
<circle cx="236.39" cy="120.07" r="2.5" fill="#3b5bdb" fill-opacity="0.75"/>
<circle cx="238.63" cy="135.44" r="2.5" fill="#3b5bdb" fill-opacity="0.75"/>
<circle cx="240.88" cy="202.93" r="2.5" fill="#3b5bdb" fill-opacity="0.75"/>
<circle cx="243.12" cy="199.71" r="2.5" fill="#3b5bdb" fill-opacity="0.75"/>
<circle cx="245.36" cy="213.42" r="2.5" fill="#3b5bdb" fill-opacity="0.75"/>
<circle cx="247.61" cy="203.14" r="2.5" fill="#3b5bdb" fill-opacity="0.75"/>
<circle cx="249.85" cy="175.33" r="2.5" fill="#3b5bdb" fill-opacity="0.75"/>
<circle cx="252.10" cy="199.21" r="2.5" fill="#3b5bdb" fill-opacity="0.75"/>
<circle cx="254.34" cy="200.47" r="2.5" fill="#3b5bdb" fill-opacity="0.75"/>
<circle cx="256.58" cy="118.34" r="2.5" fill="#3b5bdb" fill-opacity="0.75"/>
<circle cx="258.83" cy="244.31" r="2.5" fill="#3b5bdb" fill-opacity="0.75"/>
<circle cx="261.07" cy="145.39" r="2.5" fill="#3b5bdb" fill-opacity="0.75"/>
<circle cx="263.32" cy="195.88" r="2.5" fill="#3b5bdb" fill-opacity="0.75"/>
<circle cx="265.56" cy="175.64" r="2.5" fill="#3b5bdb" fill-opacity="0.75"/>
<circle cx="267.80" cy="261.65" r="2.5" fill="#3b5bdb" fill-opacity="0.75"/>
<circle cx="270.05" cy="172.95" r="2.5" fill="#3b5bdb" fill-opacity="0.75"/>
<circle cx="272.29" cy="147.07" r="2.5" fill="#3b5bdb" fill-opacity="0.75"/>
<circle cx="274.54" cy="171.14" r="2.5" fill="#3b5bdb" fill-opacity="0.75"/>
<circle cx="276.78" cy="179.76" r="2.5" fill="#3b5bdb" fill-opacity="0.75"/>
<circle cx="279.02" cy="222.09" r="2.5" fill="#3b5bdb" fill-opacity="0.75"/>
<circle cx="281.27" cy="182.18" r="2.5" fill="#3b5bdb" fill-opacity="0.75"/>
<circle cx="283.51" cy="176.44" r="2.5" fill="#3b5bdb" fill-opacity="0.75"/>
<circle cx="285.76" cy="234.16" r="2.5" fill="#3b5bdb" fill-opacity="0.75"/>
<circle cx="288.00" cy="189.32" r="2.5" fill="#3b5bdb" fill-opacity="0.75"/>
<circle cx="290.24" cy="201.52" r="2.5" fill="#3b5bdb" fill-opacity="0.75"/>
<circle cx="292.49" cy="201.49" r="2.5" fill="#3b5bdb" fill-opacity="0.75"/>
<circle cx="294.73" cy="204.56" r="2.5" fill="#3b5bdb" fill-opacity="0.75"/>
<circle cx="296.98" cy="181.15" r="2.5" fill="#3b5bdb" fill-opacity="0.75"/>
<circle cx="299.22" cy="205.84" r="2.5" fill="#3b5bdb" fill-opacity="0.75"/>
<circle cx="301.46" cy="129.88" r="2.5" fill="#3b5bdb" fill-opacity="0.75"/>
<circle cx="303.71" cy="123.25" r="2.5" fill="#3b5bdb" fill-opacity="0.75"/>
<circle cx="305.95" cy="197.45" r="2.5" fill="#3b5bdb" fill-opacity="0.75"/>
<circle cx="308.20" cy="203.31" r="2.5" fill="#3b5bdb" fill-opacity="0.75"/>
<circle cx="310.44" cy="97.45" r="2.5" fill="#3b5bdb" fill-opacity="0.75"/>
<circle cx="312.68" cy="208.45" r="2.5" fill="#3b5bdb" fill-opacity="0.75"/>
<circle cx="314.93" cy="226.06" r="2.5" fill="#3b5bdb" fill-opacity="0.75"/>
<circle cx="317.17" cy="125.05" r="2.5" fill="#3b5bdb" fill-opacity="0.75"/>
<circle cx="319.42" cy="169.27" r="2.5" fill="#3b5bdb" fill-opacity="0.75"/>
<circle cx="321.66" cy="200.10" r="2.5" fill="#3b5bdb" fill-opacity="0.75"/>
<circle cx="323.90" cy="197.87" r="2.5" fill="#3b5bdb" fill-opacity="0.75"/>
<circle cx="326.15" cy="216.60" r="2.5" fill="#3b5bdb" fill-opacity="0.75"/>
<circle cx="328.39" cy="173.98" r="2.5" fill="#3b5bdb" fill-opacity="0.75"/>
<circle cx="330.64" cy="101.15" r="2.5" fill="#3b5bdb" fill-opacity="0.75"/>
<circle cx="332.88" cy="153.53" r="2.5" fill="#3b5bdb" fill-opacity="0.75"/>
<circle cx="335.12" cy="176.50" r="2.5" fill="#3b5bdb" fill-opacity="0.75"/>
<circle cx="337.37" cy="181.51" r="2.5" fill="#3b5bdb" fill-opacity="0.75"/>
<circle cx="339.61" cy="138.51" r="2.5" fill="#3b5bdb" fill-opacity="0.75"/>
<circle cx="339.83" cy="51.27" r="2.5" fill="#3b5bdb" fill-opacity="0.75"/>
<circle cx="342.08" cy="190.46" r="2.5" fill="#3b5bdb" fill-opacity="0.75"/>
<circle cx="344.32" cy="192.25" r="2.5" fill="#3b5bdb" fill-opacity="0.75"/>
<circle cx="346.56" cy="206.50" r="2.5" fill="#3b5bdb" fill-opacity="0.75"/>
<circle cx="348.81" cy="179.06" r="2.5" fill="#3b5bdb" fill-opacity="0.75"/>
<circle cx="351.05" cy="190.59" r="2.5" fill="#3b5bdb" fill-opacity="0.75"/>
<circle cx="353.30" cy="174.91" r="2.5" fill="#3b5bdb" fill-opacity="0.75"/>
<circle cx="355.54" cy="203.91" r="2.5" fill="#3b5bdb" fill-opacity="0.75"/>
<circle cx="357.78" cy="138.24" r="2.5" fill="#3b5bdb" fill-opacity="0.75"/>
<circle cx="360.03" cy="149.31" r="2.5" fill="#3b5bdb" fill-opacity="0.75"/>
<circle cx="362.27" cy="164.28" r="2.5" fill="#3b5bdb" fill-opacity="0.75"/>
<circle cx="364.52" cy="205.04" r="2.5" fill="#3b5bdb" fill-opacity="0.75"/>
<circle cx="366.76" cy="187.09" r="2.5" fill="#3b5bdb" fill-opacity="0.75"/>
<circle cx="369.00" cy="151.03" r="2.5" fill="#3b5bdb" fill-opacity="0.75"/>
<circle cx="371.25" cy="191.92" r="2.5" fill="#3b5bdb" fill-opacity="0.75"/>
<circle cx="373.49" cy="171.44" r="2.5" fill="#3b5bdb" fill-opacity="0.75"/>
<circle cx="375.74" cy="179.76" r="2.5" fill="#3b5bdb" fill-opacity="0.75"/>
<circle cx="377.98" cy="137.86" r="2.5" fill="#3b5bdb" fill-opacity="0.75"/>
<circle cx="380.22" cy="229.35" r="2.5" fill="#3b5bdb" fill-opacity="0.75"/>
<circle cx="382.47" cy="77.94" r="2.5" fill="#3b5bdb" fill-opacity="0.75"/>
<circle cx="384.71" cy="130.35" r="2.5" fill="#3b5bdb" fill-opacity="0.75"/>
<circle cx="386.96" cy="202.99" r="2.5" fill="#3b5bdb" fill-opacity="0.75"/>
<circle cx="389.20" cy="119.21" r="2.5" fill="#3b5bdb" fill-opacity="0.75"/>
<circle cx="391.44" cy="134.02" r="2.5" fill="#3b5bdb" fill-opacity="0.75"/>
<circle cx="393.69" cy="99.16" r="2.5" fill="#3b5bdb" fill-opacity="0.75"/>
<circle cx="395.93" cy="220.11" r="2.5" fill="#3b5bdb" fill-opacity="0.75"/>
<circle cx="398.18" cy="204.01" r="2.5" fill="#3b5bdb" fill-opacity="0.75"/>
<circle cx="400.42" cy="135.23" r="2.5" fill="#3b5bdb" fill-opacity="0.75"/>
<circle cx="402.66" cy="159.38" r="2.5" fill="#3b5bdb" fill-opacity="0.75"/>
<circle cx="404.91" cy="177.29" r="2.5" fill="#3b5bdb" fill-opacity="0.75"/>
<circle cx="407.15" cy="144.72" r="2.5" fill="#3b5bdb" fill-opacity="0.75"/>
<circle cx="409.40" cy="199.79" r="2.5" fill="#3b5bdb" fill-opacity="0.75"/>
<circle cx="411.64" cy="202.28" r="2.5" fill="#3b5bdb" fill-opacity="0.75"/>
<circle cx="413.88" cy="122.14" r="2.5" fill="#3b5bdb" fill-opacity="0.75"/>
<circle cx="416.13" cy="137.25" r="2.5" fill="#3b5bdb" fill-opacity="0.75"/>
<circle cx="418.37" cy="208.42" r="2.5" fill="#3b5bdb" fill-opacity="0.75"/>
<circle cx="420.62" cy="139.86" r="2.5" fill="#3b5bdb" fill-opacity="0.75"/>
<circle cx="422.86" cy="211.35" r="2.5" fill="#3b5bdb" fill-opacity="0.75"/>
<circle cx="425.10" cy="163.48" r="2.5" fill="#3b5bdb" fill-opacity="0.75"/>
<circle cx="427.35" cy="181.31" r="2.5" fill="#3b5bdb" fill-opacity="0.75"/>
<circle cx="429.59" cy="124.68" r="2.5" fill="#3b5bdb" fill-opacity="0.75"/>
<circle cx="431.84" cy="199.80" r="2.5" fill="#3b5bdb" fill-opacity="0.75"/>
<circle cx="434.08" cy="139.72" r="2.5" fill="#3b5bdb" fill-opacity="0.75"/>
<circle cx="436.32" cy="194.05" r="2.5" fill="#3b5bdb" fill-opacity="0.75"/>
<circle cx="438.57" cy="127.57" r="2.5" fill="#3b5bdb" fill-opacity="0.75"/>
<circle cx="440.81" cy="187.93" r="2.5" fill="#3b5bdb" fill-opacity="0.75"/>
<circle cx="443.06" cy="116.52" r="2.5" fill="#3b5bdb" fill-opacity="0.75"/>
<circle cx="445.30" cy="194.84" r="2.5" fill="#3b5bdb" fill-opacity="0.75"/>
<circle cx="447.54" cy="283.21" r="2.5" fill="#3b5bdb" fill-opacity="0.75"/>
<circle cx="449.79" cy="428.16" r="2.5" fill="#3b5bdb" fill-opacity="0.75"/>
<circle cx="452.03" cy="186.86" r="2.5" fill="#3b5bdb" fill-opacity="0.75"/>
<circle cx="454.28" cy="129.49" r="2.5" fill="#3b5bdb" fill-opacity="0.75"/>
<circle cx="456.52" cy="193.83" r="2.5" fill="#3b5bdb" fill-opacity="0.75"/>
<circle cx="458.76" cy="204.31" r="2.5" fill="#3b5bdb" fill-opacity="0.75"/>
<circle cx="461.01" cy="157.17" r="2.5" fill="#3b5bdb" fill-opacity="0.75"/>
<circle cx="463.25" cy="233.75" r="2.5" fill="#3b5bdb" fill-opacity="0.75"/>
<circle cx="465.50" cy="223.00" r="2.5" fill="#3b5bdb" fill-opacity="0.75"/>
<circle cx="467.74" cy="96.88" r="2.5" fill="#3b5bdb" fill-opacity="0.75"/>
<circle cx="469.98" cy="160.83" r="2.5" fill="#3b5bdb" fill-opacity="0.75"/>
<circle cx="472.23" cy="269.79" r="2.5" fill="#3b5bdb" fill-opacity="0.75"/>
<circle cx="474.47" cy="110.51" r="2.5" fill="#3b5bdb" fill-opacity="0.75"/>
<circle cx="476.72" cy="195.83" r="2.5" fill="#3b5bdb" fill-opacity="0.75"/>
<circle cx="478.96" cy="177.44" r="2.5" fill="#3b5bdb" fill-opacity="0.75"/>
<circle cx="481.20" cy="163.00" r="2.5" fill="#3b5bdb" fill-opacity="0.75"/>
<circle cx="483.45" cy="185.81" r="2.5" fill="#3b5bdb" fill-opacity="0.75"/>
<circle cx="485.69" cy="229.05" r="2.5" fill="#3b5bdb" fill-opacity="0.75"/>
<circle cx="487.94" cy="96.55" r="2.5" fill="#3b5bdb" fill-opacity="0.75"/>
<circle cx="490.18" cy="220.66" r="2.5" fill="#3b5bdb" fill-opacity="0.75"/>
<circle cx="492.42" cy="225.20" r="2.5" fill="#3b5bdb" fill-opacity="0.75"/>
<circle cx="494.67" cy="225.62" r="2.5" fill="#3b5bdb" fill-opacity="0.75"/>
<circle cx="496.91" cy="173.90" r="2.5" fill="#3b5bdb" fill-opacity="0.75"/>
<circle cx="499.16" cy="198.92" r="2.5" fill="#3b5bdb" fill-opacity="0.75"/>
<circle cx="501.40" cy="131.77" r="2.5" fill="#3b5bdb" fill-opacity="0.75"/>
<circle cx="503.64" cy="181.76" r="2.5" fill="#3b5bdb" fill-opacity="0.75"/>
<circle cx="505.89" cy="143.68" r="2.5" fill="#3b5bdb" fill-opacity="0.75"/>
<circle cx="508.13" cy="136.11" r="2.5" fill="#3b5bdb" fill-opacity="0.75"/>
<circle cx="510.38" cy="167.07" r="2.5" fill="#3b5bdb" fill-opacity="0.75"/>
<circle cx="512.62" cy="114.69" r="2.5" fill="#3b5bdb" fill-opacity="0.75"/>
<circle cx="514.86" cy="167.55" r="2.5" fill="#3b5bdb" fill-opacity="0.75"/>
<circle cx="517.11" cy="119.94" r="2.5" fill="#3b5bdb" fill-opacity="0.75"/>
<circle cx="519.35" cy="203.80" r="2.5" fill="#3b5bdb" fill-opacity="0.75"/>
<circle cx="521.60" cy="176.01" r="2.5" fill="#3b5bdb" fill-opacity="0.75"/>
<circle cx="523.84" cy="209.40" r="2.5" fill="#3b5bdb" fill-opacity="0.75"/>
<circle cx="526.08" cy="149.68" r="2.5" fill="#3b5bdb" fill-opacity="0.75"/>
<circle cx="528.33" cy="223.90" r="2.5" fill="#3b5bdb" fill-opacity="0.75"/>
<circle cx="530.57" cy="167.62" r="2.5" fill="#3b5bdb" fill-opacity="0.75"/>
<circle cx="532.82" cy="167.08" r="2.5" fill="#3b5bdb" fill-opacity="0.75"/>
<circle cx="535.06" cy="177.10" r="2.5" fill="#3b5bdb" fill-opacity="0.75"/>
<circle cx="537.30" cy="193.58" r="2.5" fill="#3b5bdb" fill-opacity="0.75"/>
<circle cx="539.55" cy="224.25" r="2.5" fill="#3b5bdb" fill-opacity="0.75"/>
<circle cx="541.79" cy="175.51" r="2.5" fill="#3b5bdb" fill-opacity="0.75"/>
<circle cx="544.04" cy="205.31" r="2.5" fill="#3b5bdb" fill-opacity="0.75"/>
<circle cx="546.28" cy="211.38" r="2.5" fill="#3b5bdb" fill-opacity="0.75"/>
<circle cx="548.52" cy="119.07" r="2.5" fill="#3b5bdb" fill-opacity="0.75"/>
<circle cx="550.77" cy="134.54" r="2.5" fill="#3b5bdb" fill-opacity="0.75"/>
<circle cx="553.01" cy="168.69" r="2.5" fill="#3b5bdb" fill-opacity="0.75"/>
<circle cx="555.26" cy="130.43" r="2.5" fill="#3b5bdb" fill-opacity="0.75"/>
<circle cx="557.50" cy="265.09" r="2.5" fill="#3b5bdb" fill-opacity="0.75"/>
<circle cx="559.74" cy="92.74" r="2.5" fill="#3b5bdb" fill-opacity="0.75"/>
<circle cx="561.99" cy="316.85" r="2.5" fill="#3b5bdb" fill-opacity="0.75"/>
<circle cx="564.23" cy="234.07" r="2.5" fill="#3b5bdb" fill-opacity="0.75"/>
<circle cx="566.48" cy="195.45" r="2.5" fill="#3b5bdb" fill-opacity="0.75"/>
<circle cx="568.72" cy="204.40" r="2.5" fill="#3b5bdb" fill-opacity="0.75"/>
<circle cx="570.96" cy="183.03" r="2.5" fill="#3b5bdb" fill-opacity="0.75"/>
<circle cx="573.21" cy="131.56" r="2.5" fill="#3b5bdb" fill-opacity="0.75"/>
<circle cx="575.45" cy="131.46" r="2.5" fill="#3b5bdb" fill-opacity="0.75"/>
<circle cx="577.70" cy="170.42" r="2.5" fill="#3b5bdb" fill-opacity="0.75"/>
<circle cx="579.94" cy="154.85" r="2.5" fill="#3b5bdb" fill-opacity="0.75"/>
<circle cx="582.18" cy="172.09" r="2.5" fill="#3b5bdb" fill-opacity="0.75"/>
<circle cx="584.43" cy="162.52" r="2.5" fill="#3b5bdb" fill-opacity="0.75"/>
<circle cx="586.67" cy="189.73" r="2.5" fill="#3b5bdb" fill-opacity="0.75"/>
<circle cx="588.92" cy="94.82" r="2.5" fill="#3b5bdb" fill-opacity="0.75"/>
<circle cx="591.16" cy="149.38" r="2.5" fill="#3b5bdb" fill-opacity="0.75"/>
<circle cx="593.40" cy="135.28" r="2.5" fill="#3b5bdb" fill-opacity="0.75"/>
<circle cx="595.65" cy="135.43" r="2.5" fill="#3b5bdb" fill-opacity="0.75"/>
<circle cx="597.89" cy="211.59" r="2.5" fill="#3b5bdb" fill-opacity="0.75"/>
<circle cx="600.14" cy="90.92" r="2.5" fill="#3b5bdb" fill-opacity="0.75"/>
<circle cx="602.38" cy="197.18" r="2.5" fill="#3b5bdb" fill-opacity="0.75"/>
<circle cx="604.62" cy="112.83" r="2.5" fill="#3b5bdb" fill-opacity="0.75"/>
<circle cx="606.87" cy="162.29" r="2.5" fill="#3b5bdb" fill-opacity="0.75"/>
<circle cx="609.11" cy="194.15" r="2.5" fill="#3b5bdb" fill-opacity="0.75"/>
<circle cx="611.36" cy="197.33" r="2.5" fill="#3b5bdb" fill-opacity="0.75"/>
<circle cx="613.60" cy="176.27" r="2.5" fill="#3b5bdb" fill-opacity="0.75"/>
<circle cx="615.84" cy="131.41" r="2.5" fill="#3b5bdb" fill-opacity="0.75"/>
<circle cx="618.09" cy="211.98" r="2.5" fill="#3b5bdb" fill-opacity="0.75"/>
<circle cx="620.33" cy="170.10" r="2.5" fill="#3b5bdb" fill-opacity="0.75"/>
<circle cx="622.58" cy="227.13" r="2.5" fill="#3b5bdb" fill-opacity="0.75"/>
<circle cx="624.82" cy="136.72" r="2.5" fill="#3b5bdb" fill-opacity="0.75"/>
<circle cx="627.06" cy="234.93" r="2.5" fill="#3b5bdb" fill-opacity="0.75"/>
<circle cx="629.31" cy="231.75" r="2.5" fill="#3b5bdb" fill-opacity="0.75"/>
<circle cx="631.55" cy="192.79" r="2.5" fill="#3b5bdb" fill-opacity="0.75"/>
<circle cx="633.80" cy="226.20" r="2.5" fill="#3b5bdb" fill-opacity="0.75"/>
<circle cx="636.04" cy="139.18" r="2.5" fill="#3b5bdb" fill-opacity="0.75"/>
<circle cx="638.28" cy="133.98" r="2.5" fill="#3b5bdb" fill-opacity="0.75"/>
<circle cx="640.53" cy="119.62" r="2.5" fill="#3b5bdb" fill-opacity="0.75"/>
<circle cx="642.77" cy="193.97" r="2.5" fill="#3b5bdb" fill-opacity="0.75"/>
<circle cx="645.02" cy="166.49" r="2.5" fill="#3b5bdb" fill-opacity="0.75"/>
<circle cx="647.26" cy="99.09" r="2.5" fill="#3b5bdb" fill-opacity="0.75"/>
<circle cx="649.50" cy="190.85" r="2.5" fill="#3b5bdb" fill-opacity="0.75"/>
<circle cx="651.75" cy="136.67" r="2.5" fill="#3b5bdb" fill-opacity="0.75"/>
<circle cx="653.99" cy="168.60" r="2.5" fill="#3b5bdb" fill-opacity="0.75"/>
<circle cx="656.24" cy="189.49" r="2.5" fill="#3b5bdb" fill-opacity="0.75"/>
<circle cx="658.48" cy="221.64" r="2.5" fill="#3b5bdb" fill-opacity="0.75"/>
<circle cx="660.72" cy="169.60" r="2.5" fill="#3b5bdb" fill-opacity="0.75"/>
<circle cx="662.97" cy="252.14" r="2.5" fill="#3b5bdb" fill-opacity="0.75"/>
<circle cx="665.21" cy="99.45" r="2.5" fill="#3b5bdb" fill-opacity="0.75"/>
<circle cx="667.46" cy="98.32" r="2.5" fill="#3b5bdb" fill-opacity="0.75"/>
<circle cx="669.70" cy="166.46" r="2.5" fill="#3b5bdb" fill-opacity="0.75"/>
<circle cx="671.94" cy="199.11" r="2.5" fill="#3b5bdb" fill-opacity="0.75"/>
<circle cx="674.19" cy="165.78" r="2.5" fill="#3b5bdb" fill-opacity="0.75"/>
<circle cx="676.43" cy="141.42" r="2.5" fill="#3b5bdb" fill-opacity="0.75"/>
<circle cx="678.68" cy="206.62" r="2.5" fill="#3b5bdb" fill-opacity="0.75"/>
<circle cx="680.92" cy="244.71" r="2.5" fill="#3b5bdb" fill-opacity="0.75"/>
<circle cx="683.16" cy="187.58" r="2.5" fill="#3b5bdb" fill-opacity="0.75"/>
<circle cx="685.41" cy="115.69" r="2.5" fill="#3b5bdb" fill-opacity="0.75"/>
<circle cx="687.65" cy="174.18" r="2.5" fill="#3b5bdb" fill-opacity="0.75"/>
<circle cx="689.90" cy="168.64" r="2.5" fill="#3b5bdb" fill-opacity="0.75"/>
<circle cx="692.14" cy="168.44" r="2.5" fill="#3b5bdb" fill-opacity="0.75"/>
<circle cx="694.38" cy="135.34" r="2.5" fill="#3b5bdb" fill-opacity="0.75"/>
<circle cx="696.63" cy="218.43" r="2.5" fill="#3b5bdb" fill-opacity="0.75"/>
<circle cx="698.87" cy="198.62" r="2.5" fill="#3b5bdb" fill-opacity="0.75"/>
<circle cx="701.12" cy="96.18" r="2.5" fill="#3b5bdb" fill-opacity="0.75"/>
<circle cx="703.36" cy="163.85" r="2.5" fill="#3b5bdb" fill-opacity="0.75"/>
<circle cx="705.60" cy="119.40" r="2.5" fill="#3b5bdb" fill-opacity="0.75"/>
<circle cx="707.85" cy="131.47" r="2.5" fill="#3b5bdb" fill-opacity="0.75"/>
<circle cx="710.09" cy="126.44" r="2.5" fill="#3b5bdb" fill-opacity="0.75"/>
<circle cx="712.34" cy="228.65" r="2.5" fill="#3b5bdb" fill-opacity="0.75"/>
<circle cx="714.58" cy="113.40" r="2.5" fill="#3b5bdb" fill-opacity="0.75"/>
<circle cx="716.82" cy="178.39" r="2.5" fill="#3b5bdb" fill-opacity="0.75"/>
<circle cx="719.07" cy="127.78" r="2.5" fill="#3b5bdb" fill-opacity="0.75"/>
<circle cx="721.31" cy="208.13" r="2.5" fill="#3b5bdb" fill-opacity="0.75"/>
<circle cx="723.56" cy="196.33" r="2.5" fill="#3b5bdb" fill-opacity="0.75"/>
<circle cx="725.80" cy="180.87" r="2.5" fill="#3b5bdb" fill-opacity="0.75"/>
<circle cx="728.04" cy="180.44" r="2.5" fill="#3b5bdb" fill-opacity="0.75"/>
<circle cx="730.29" cy="143.53" r="2.5" fill="#3b5bdb" fill-opacity="0.75"/>
<circle cx="732.53" cy="146.76" r="2.5" fill="#3b5bdb" fill-opacity="0.75"/>
<circle cx="734.78" cy="189.08" r="2.5" fill="#3b5bdb" fill-opacity="0.75"/>
<circle cx="737.02" cy="137.46" r="2.5" fill="#3b5bdb" fill-opacity="0.75"/>
<circle cx="739.26" cy="123.61" r="2.5" fill="#3b5bdb" fill-opacity="0.75"/>
<circle cx="741.51" cy="163.24" r="2.5" fill="#3b5bdb" fill-opacity="0.75"/>
<circle cx="743.75" cy="156.16" r="2.5" fill="#3b5bdb" fill-opacity="0.75"/>
<circle cx="746.00" cy="122.69" r="2.5" fill="#3b5bdb" fill-opacity="0.75"/>
<circle cx="748.24" cy="177.01" r="2.5" fill="#3b5bdb" fill-opacity="0.75"/>
<circle cx="750.48" cy="220.51" r="2.5" fill="#3b5bdb" fill-opacity="0.75"/>
<circle cx="752.73" cy="186.41" r="2.5" fill="#3b5bdb" fill-opacity="0.75"/>
<circle cx="754.97" cy="154.21" r="2.5" fill="#3b5bdb" fill-opacity="0.75"/>
<circle cx="757.22" cy="177.45" r="2.5" fill="#3b5bdb" fill-opacity="0.75"/>
<circle cx="759.46" cy="187.89" r="2.5" fill="#3b5bdb" fill-opacity="0.75"/>
<circle cx="761.70" cy="171.94" r="2.5" fill="#3b5bdb" fill-opacity="0.75"/>
<circle cx="763.95" cy="165.47" r="2.5" fill="#3b5bdb" fill-opacity="0.75"/>
<circle cx="766.19" cy="164.62" r="2.5" fill="#3b5bdb" fill-opacity="0.75"/>
<circle cx="768.44" cy="224.00" r="2.5" fill="#3b5bdb" fill-opacity="0.75"/>
<circle cx="770.68" cy="175.78" r="2.5" fill="#3b5bdb" fill-opacity="0.75"/>
<circle cx="772.92" cy="184.67" r="2.5" fill="#3b5bdb" fill-opacity="0.75"/>
<circle cx="775.17" cy="124.93" r="2.5" fill="#3b5bdb" fill-opacity="0.75"/>
<circle cx="777.41" cy="187.73" r="2.5" fill="#3b5bdb" fill-opacity="0.75"/>
<circle cx="779.66" cy="210.84" r="2.5" fill="#3b5bdb" fill-opacity="0.75"/>
<circle cx="781.90" cy="152.64" r="2.5" fill="#3b5bdb" fill-opacity="0.75"/>
<circle cx="784.14" cy="166.57" r="2.5" fill="#3b5bdb" fill-opacity="0.75"/>
<circle cx="786.39" cy="145.72" r="2.5" fill="#3b5bdb" fill-opacity="0.75"/>
<circle cx="788.63" cy="138.76" r="2.5" fill="#3b5bdb" fill-opacity="0.75"/>
<circle cx="790.88" cy="198.11" r="2.5" fill="#3b5bdb" fill-opacity="0.75"/>
<circle cx="793.12" cy="105.08" r="2.5" fill="#3b5bdb" fill-opacity="0.75"/>
<circle cx="795.36" cy="149.84" r="2.5" fill="#3b5bdb" fill-opacity="0.75"/>
<circle cx="797.61" cy="179.72" r="2.5" fill="#3b5bdb" fill-opacity="0.75"/>
<circle cx="799.85" cy="139.88" r="2.5" fill="#3b5bdb" fill-opacity="0.75"/>
<circle cx="802.10" cy="127.28" r="2.5" fill="#3b5bdb" fill-opacity="0.75"/>
<circle cx="804.34" cy="174.80" r="2.5" fill="#3b5bdb" fill-opacity="0.75"/>
<circle cx="806.58" cy="140.79" r="2.5" fill="#3b5bdb" fill-opacity="0.75"/>
<circle cx="808.83" cy="148.62" r="2.5" fill="#3b5bdb" fill-opacity="0.75"/>
<circle cx="811.07" cy="130.19" r="2.5" fill="#3b5bdb" fill-opacity="0.75"/>
<circle cx="813.32" cy="146.58" r="2.5" fill="#3b5bdb" fill-opacity="0.75"/>
<circle cx="815.56" cy="229.15" r="2.5" fill="#3b5bdb" fill-opacity="0.75"/>
<circle cx="817.80" cy="123.29" r="2.5" fill="#3b5bdb" fill-opacity="0.75"/>
<circle cx="820.05" cy="148.27" r="2.5" fill="#3b5bdb" fill-opacity="0.75"/>
<circle cx="822.29" cy="125.04" r="2.5" fill="#3b5bdb" fill-opacity="0.75"/>
<circle cx="824.54" cy="103.75" r="2.5" fill="#3b5bdb" fill-opacity="0.75"/>
<circle cx="826.78" cy="213.30" r="2.5" fill="#3b5bdb" fill-opacity="0.75"/>
<circle cx="829.02" cy="166.21" r="2.5" fill="#3b5bdb" fill-opacity="0.75"/>
<circle cx="831.27" cy="146.96" r="2.5" fill="#3b5bdb" fill-opacity="0.75"/>
<circle cx="833.51" cy="196.46" r="2.5" fill="#3b5bdb" fill-opacity="0.75"/>
<circle cx="835.76" cy="185.25" r="2.5" fill="#3b5bdb" fill-opacity="0.75"/>
<circle cx="838.00" cy="202.05" r="2.5" fill="#3b5bdb" fill-opacity="0.75"/>
<circle cx="840.24" cy="159.91" r="2.5" fill="#3b5bdb" fill-opacity="0.75"/>
<circle cx="842.49" cy="273.81" r="2.5" fill="#3b5bdb" fill-opacity="0.75"/>
<circle cx="844.73" cy="145.13" r="2.5" fill="#3b5bdb" fill-opacity="0.75"/>
<circle cx="846.98" cy="191.89" r="2.5" fill="#3b5bdb" fill-opacity="0.75"/>
<circle cx="849.22" cy="228.57" r="2.5" fill="#3b5bdb" fill-opacity="0.75"/>
<circle cx="851.46" cy="189.50" r="2.5" fill="#3b5bdb" fill-opacity="0.75"/>
<circle cx="853.71" cy="153.12" r="2.5" fill="#3b5bdb" fill-opacity="0.75"/>
<circle cx="855.95" cy="189.26" r="2.5" fill="#3b5bdb" fill-opacity="0.75"/>
<circle cx="858.20" cy="87.90" r="2.5" fill="#3b5bdb" fill-opacity="0.75"/>
<circle cx="860.44" cy="100.40" r="2.5" fill="#3b5bdb" fill-opacity="0.75"/>
<circle cx="862.68" cy="206.93" r="2.5" fill="#3b5bdb" fill-opacity="0.75"/>
<circle cx="864.93" cy="530.00" r="2.5" fill="#3b5bdb" fill-opacity="0.75"/>
<circle cx="867.17" cy="191.75" r="2.5" fill="#3b5bdb" fill-opacity="0.75"/>
<circle cx="869.42" cy="206.86" r="2.5" fill="#3b5bdb" fill-opacity="0.75"/>
<circle cx="871.66" cy="198.59" r="2.5" fill="#3b5bdb" fill-opacity="0.75"/>
<circle cx="873.90" cy="129.42" r="2.5" fill="#3b5bdb" fill-opacity="0.75"/>
<circle cx="876.15" cy="231.43" r="2.5" fill="#3b5bdb" fill-opacity="0.75"/>
<circle cx="878.39" cy="112.10" r="2.5" fill="#3b5bdb" fill-opacity="0.75"/>
<circle cx="880.64" cy="199.23" r="2.5" fill="#3b5bdb" fill-opacity="0.75"/>
<circle cx="882.88" cy="210.14" r="2.5" fill="#3b5bdb" fill-opacity="0.75"/>
<circle cx="885.12" cy="202.58" r="2.5" fill="#3b5bdb" fill-opacity="0.75"/>
<circle cx="887.37" cy="202.29" r="2.5" fill="#3b5bdb" fill-opacity="0.75"/>
<circle cx="889.61" cy="135.15" r="2.5" fill="#3b5bdb" fill-opacity="0.75"/>
<circle cx="891.86" cy="185.26" r="2.5" fill="#3b5bdb" fill-opacity="0.75"/>
<circle cx="894.10" cy="181.00" r="2.5" fill="#3b5bdb" fill-opacity="0.75"/>
<circle cx="896.34" cy="57.88" r="2.5" fill="#3b5bdb" fill-opacity="0.75"/>
<circle cx="898.59" cy="151.26" r="2.5" fill="#3b5bdb" fill-opacity="0.75"/>
<circle cx="900.83" cy="149.54" r="2.5" fill="#3b5bdb" fill-opacity="0.75"/>
<circle cx="903.08" cy="230.73" r="2.5" fill="#3b5bdb" fill-opacity="0.75"/>
<circle cx="905.32" cy="268.33" r="2.5" fill="#3b5bdb" fill-opacity="0.75"/>
<circle cx="907.56" cy="131.27" r="2.5" fill="#3b5bdb" fill-opacity="0.75"/>
<circle cx="909.81" cy="111.84" r="2.5" fill="#3b5bdb" fill-opacity="0.75"/>
<circle cx="912.05" cy="214.58" r="2.5" fill="#3b5bdb" fill-opacity="0.75"/>
<circle cx="914.30" cy="150.29" r="2.5" fill="#3b5bdb" fill-opacity="0.75"/>
<circle cx="916.54" cy="161.78" r="2.5" fill="#3b5bdb" fill-opacity="0.75"/>
<circle cx="918.78" cy="213.22" r="2.5" fill="#3b5bdb" fill-opacity="0.75"/>
<circle cx="921.03" cy="281.14" r="2.5" fill="#3b5bdb" fill-opacity="0.75"/>
<circle cx="923.27" cy="108.10" r="2.5" fill="#3b5bdb" fill-opacity="0.75"/>
<circle cx="925.52" cy="116.63" r="2.5" fill="#3b5bdb" fill-opacity="0.75"/>
<circle cx="927.76" cy="142.24" r="2.5" fill="#3b5bdb" fill-opacity="0.75"/>
<circle cx="930.00" cy="160.28" r="2.5" fill="#3b5bdb" fill-opacity="0.75"/>
<circle cx="932.25" cy="164.96" r="2.5" fill="#3b5bdb" fill-opacity="0.75"/>
<circle cx="934.49" cy="201.73" r="2.5" fill="#3b5bdb" fill-opacity="0.75"/>
<circle cx="936.74" cy="103.61" r="2.5" fill="#3b5bdb" fill-opacity="0.75"/>
<circle cx="938.98" cy="171.31" r="2.5" fill="#3b5bdb" fill-opacity="0.75"/>
<circle cx="941.22" cy="141.59" r="2.5" fill="#3b5bdb" fill-opacity="0.75"/>
<circle cx="943.47" cy="182.46" r="2.5" fill="#3b5bdb" fill-opacity="0.75"/>
<circle cx="945.71" cy="248.00" r="2.5" fill="#3b5bdb" fill-opacity="0.75"/>
<circle cx="947.96" cy="84.28" r="2.5" fill="#3b5bdb" fill-opacity="0.75"/>
<circle cx="950.20" cy="213.61" r="2.5" fill="#3b5bdb" fill-opacity="0.75"/>
<circle cx="952.44" cy="225.58" r="2.5" fill="#3b5bdb" fill-opacity="0.75"/>
<circle cx="954.69" cy="139.63" r="2.5" fill="#3b5bdb" fill-opacity="0.75"/>
<circle cx="956.93" cy="158.76" r="2.5" fill="#3b5bdb" fill-opacity="0.75"/>
<circle cx="959.18" cy="180.37" r="2.5" fill="#3b5bdb" fill-opacity="0.75"/>
<circle cx="961.42" cy="240.25" r="2.5" fill="#3b5bdb" fill-opacity="0.75"/>
<circle cx="963.66" cy="201.14" r="2.5" fill="#3b5bdb" fill-opacity="0.75"/>
<circle cx="965.91" cy="157.94" r="2.5" fill="#3b5bdb" fill-opacity="0.75"/>
<circle cx="968.15" cy="283.50" r="2.5" fill="#3b5bdb" fill-opacity="0.75"/>
</svg>